<?xml version="1.0" encoding="utf-8"?>
<!-- Generator: Adobe Illustrator 25.2.0, SVG Export Plug-In . SVG Version: 6.00 Build 0)  -->
<svg version="1.1" id="Take_x5F_exercise" xmlns="http://www.w3.org/2000/svg" xmlns:xlink="http://www.w3.org/1999/xlink" x="0px"
	 y="0px" viewBox="0 0 512 512" style="enable-background:new 0 0 512 512;" xml:space="preserve">
<style type="text/css">
	.st0{fill:#FFFFFF;}
</style>
<g>
	<g>
		<path class="st0" d="M269.5,319.9c0-49.1-40-89.1-89.1-89.1v10c43.6,0,79.1,35.5,79.1,79.1H269.5z"/>
		<path class="st0" d="M26.2,316.6h81.6v-95.1h40.9v39.4c0,25.2,10.6,49.6,29,66.8c19.4,18.1,30.5,43.2,30.5,68.8v49h10v-49
			c0-28.3-12.3-56.1-33.7-76.1c-16.4-15.3-25.8-37-25.8-59.5v-51.3c0-13.6,11.1-24.8,24.8-24.8h60.8c2.5,0,4.6,2.1,4.6,4.6
			c0,12.6-10.2,22.8-22.8,22.8h-45.2v10H226c8.9,0,17-3.6,22.9-9.4c4.8,4.3,11,6.8,17.7,6.8c8.9,0,16.7-4.4,21.5-11.1
			c4.8,6.7,12.7,11.1,21.5,11.1c11,0,20.4-6.7,24.4-16.1h9.4v97.1c0,9.1-2.9,17.7-8.3,25c-9.8,13.1-15,28.3-15,43.9v76h10v-76
			c0-13.4,4.5-26.5,13-37.9c6.7-9,10.3-19.7,10.3-31v-97.1h50.7v8h-37.1v10h37.1v95.1h81.6v-60.3l19.4-23.9V130.8l-19.4-23.9V46.6
			h-81.6v113.1h-67.9v-26.3c0-7.1-2.8-13.7-7.8-18.8c-5-5-11.7-7.8-18.8-7.8c-6.3,0-12.1,2.2-16.7,5.9c-0.6-6.1-3.3-11.7-7.6-16.1
			c-5-5-11.7-7.8-18.8-7.8c-8.9,0-16.7,4.4-21.5,11c-0.8-1.2-1.8-2.2-2.8-3.3c-5-5-11.7-7.8-18.7-7.8c-13.7,0-25,10.5-26.4,23.8
			c-4.7-3.8-10.5-5.9-16.7-5.9c-14.6,0-26.5,11.9-26.5,26.5v31.3h10v-31.3c0-9.1,7.4-16.5,16.5-16.5c4.4,0,8.6,1.7,11.7,4.8
			c3.1,3.1,4.8,7.3,4.8,11.7h10v-17.9c0-9.1,7.4-16.5,16.5-16.5c4.4,0,8.6,1.7,11.7,4.8s4.8,7.3,4.8,11.7v13h10v-13
			c0-9.1,7.4-16.5,16.5-16.5c4.4,0,8.6,1.7,11.7,4.9c3.1,3.1,4.8,7.3,4.8,11.7v17.9h10c0-9.1,7.4-16.5,16.5-16.5
			c4.4,0,8.6,1.7,11.7,4.8c3.1,3.1,4.8,7.3,4.8,11.7v59.8c0,9.1-7.4,16.5-16.5,16.5c-9.1,0-16.5-7.4-16.5-16.5v-39.6h-10v39.6
			c0,9.1-7.4,16.5-16.5,16.5c-4.5,0-8.6-1.8-11.6-4.8c2.5-4.6,3.9-9.8,3.9-15.4c0-6-3.6-11.1-8.7-13.3v-33.7h-10v32.4h-33.1v-21.4
			h-10v21.4h-13.6c-13.4,0-25,7.6-30.8,18.6h-44.9v-23.8h33v-10h-33V46.6H26.2v60.3L6.8,130.8v101.7l19.4,23.9V316.6z M495.2,134.3
			v94.6l-9.4,11.6V122.7L495.2,134.3z M414.2,56.6H440v216.7h10V56.6h25.8v38v174v38H450v-19h-10v19h-25.8V203.5v-43.8V56.6z
			 M404.2,169.7v23.8h-67.9c0-0.1,0-0.2,0-0.4v-23.5H404.2z M149.3,203.5c-0.4,2-0.5,4-0.5,6.1v1.9h-40.9v-8H149.3z M36.2,56.6H62
			v19h10v-19h25.8v103.1v43.8v103.1H72V89.9H62v216.7H36.2v-38v-174V56.6z M16.8,228.9v-94.6l9.4-11.6v117.7L16.8,228.9z"/>
	</g>
</g>
</svg>
